<svg className="health__animation__frame-3" width="100" height="100" version="1.1" viewBox="0 0 26.458 26.458" xmlns="http://www.w3.org/2000/svg">
 <g fill-rule="evenodd">
  <path d="m16.549 15.179c.0075-.0075.02245-.02243.03741-.0299.02993-.03738.05237-.05982.09726-.0972.4788-.47105.80797-.88977.93515-1.6749.20199-1.316-.55361-1.5627-1.0025-1.8842l2.1621.0075c-.3591.24674-.56109.25422-.80797.65798-.19451.32899-.26184.80752-.20199 1.2337.14214.88977 1.0773 1.8169 1.0773 1.8169.0075-.01495.02245.02991.02993.05234l-2.4015-.0075zm-4.3616-.32151c.38902-.37385.64338-.93463.72568-1.4805.19451-1.3608-.57606-1.5777-.995-1.8842l2.177.0075c-.53117.35142-1.2269.69536-.995 1.944.15711.84491.68079 1.3384 1.1072 1.802l-2.4239.0075zm-5.0947.39628c.38154-.46358.98752-.75518 1.1371-1.8842.17207-1.2561-.44887-1.5104-.98752-1.8767l2.1621.0075c-.37406.2617-.53865.23179-.80797.65798-.53117.82995-.05985 2.0711.54613 2.7067l.35162.39628zm4.9601-5.9143v.6505c-2.5137.0972-5.783 0-8.4538.01495l-.01496 1.4805 1.0923.0075c-.0075.01495-.02993.0075-.03741.02991l-.16459.11963c-.20947.12711-.41147.24674-.56857.50844-.20199.33647-.26932.815-.19451 1.2487.07481.44115.41895 1.0991.7182 1.4206l.38902.43367-1.2045.01495-.0075.57573c1.197.14954 19.002.04486 19.152.03738l-.0075-.61312-1.586-.01495.17207-.17197c.78553-.76266 1.3242-1.8992.79301-2.8787-.23192-.43367-.44888-.44862-.83042-.70284l1.4214-.02991v-1.4356c-2.8204-.08973-5.8952.05234-8.5735-.03738v-2.0263c-.50872.22431-1.6683 1.1814-2.0947 1.3683z" fill="#6a973d"/>
  <path d="m.22449 13.908c-.41895-7.3873 5.394-13.347 12.344-13.69 7.4064-.36638 13.332 5.376 13.676 12.36.3591 7.3873-5.4164 13.324-12.352 13.646-7.4214.34394-13.264-5.3386-13.668-12.315zm11.738-13.847c-6.8304.63555-12.658 6.7667-11.895 14.423.68079 6.849 6.6882 12.591 14.401 11.896 6.8603-.62807 12.628-6.7069 11.933-14.371-.62094-6.8938-6.7331-12.666-14.439-11.948z" fill="#68943c"/>
  <path d="m9.5611 3.2308h2.4763l.01496 2.0113c.68079-.32899 1.4364-1.0094 2.0947-1.3833l.01496-.6206 2.3715-.0075v-1.1589h-6.9575z" fill="#68973b"/>
  <path d="m11.91 16.458c-.20199.40376-.41895.9122-.5985 1.3234-.66583 1.5178 2.1172 1.4132 1.2943-.05234-.3965-.70284-.22444-.22431-.69575-1.2711z" fill="#68973b"/>
  <path d="m12.112 21.811c-.17207.49348-.42643.88977-.5985 1.3608-.55361 1.4505 2.1097 1.3384 1.3242-.10468-.1197-.22431-.24688-.33647-.37406-.57573-.1197-.22431-.20947-.51592-.35162-.68041z" fill="#68973b"/>
  <path d="m7.8254 16.458c-.16459.48601-.41895.89725-.60598 1.3533-.58353 1.4879 2.1097 1.3608 1.3242-.07477-.11222-.20936-.26184-.3589-.3965-.61312-.12718-.22431-.17955-.46358-.32169-.66546z" fill="#68973b"/>
  <path d="m15 19.254c-.13466.46358-.3965.87482-.57605 1.3234-.56109 1.4206 2.0573 1.3982 1.3391-.05234-.16459-.35142-.30673-.35142-.53865-.9122-.12718-.31404-.11222-.25422-.22444-.3589z" fill="#68973b"/>
  <path d="m17.918 16.48c-.03741.33647-.42643.97949-.56857 1.3234-.65087 1.5178 2.0873 1.4505 1.3017-.03738-.1197-.21684-.26184-.35142-.3965-.61312-.1197-.23179-.20947-.50844-.33666-.67293z" fill="#68973b"/>
  <path d="m15.868 16.503c-.14214.47853-.43391.91968-.60598 1.3683-.56857 1.458 2.1172 1.3533 1.3167-.11963-.1197-.21684-.24688-.32151-.38154-.56826-.11222-.22431-.19451-.49348-.32917-.68041z" fill="#68973b"/>
  <path d="m8.9401 19.194c-.1197.48601-.43391.91968-.5985 1.3833-.49376 1.3907 2.0873 1.3234 1.3466-.11963-.17207-.33647-.26932-.2916-.53865-.91968l-.17207-.29908c-.0075-.01495-.02245-.02991-.03741-.04486z" fill="#68973b"/>
  <path d="m13.055 19.172c-.19451.41124-.42643.9122-.60598 1.3309-.25436.59069.1197 1.1515.74064 1.1141.53865-.03738.86782-.53087.57605-1.1216-.23192-.47105-.34414-.40376-.71072-1.3234z" fill="#68973b"/>
  <path d="m14.125 21.796c-.13466.47105-.41895.89725-.5985 1.3683-.20947.56078.19451 1.0617.74812 1.0468.56857-.02243.89026-.58321.5985-1.1515-.1571-.30656-.2768-.33647-.53865-.9122z" fill="#68973b"/>
  <path d="m11.02 19.187c-.16459.48601-.3965.86734-.59102 1.3234-.64339 1.5328 2.0573 1.3982 1.3092-.0075-.12718-.23179-.26184-.36638-.3965-.6206-.1197-.22431-.21696-.49348-.32169-.69536z" fill="#68973b"/>
  <path d="m17.027 19.202c-.15711.4561-.43391.90472-.61346 1.3384-.26184.63555.14214 1.1589.77805 1.1141.61346-.04486.80049-.71032.50124-1.2188-.20199-.34394-.52369-.7477-.66583-1.2337z" fill="#68973b"/>
  <path d="m16.145 21.789c-.15711.47853-.38902.86734-.58354 1.316-.65835 1.5328 2.0499 1.4356 1.3017-.0075-.11222-.21683-.26184-.36638-.3965-.61312-.11222-.21683-.20947-.47105-.32169-.69536z" fill="#68973b"/>
  <path d="m13.87 16.54c-.1571.46358-.40398.86734-.58354 1.316-.2394.59816.1571 1.0991.73316 1.0842.59102-.02243.86782-.61312.5985-1.1365-.10474-.21684-.25436-.3589-.36658-.57573-.06733-.11963-.11222-.20936-.16459-.33647z" fill="#68973b"/>
  <path d="m9.8753 16.473c-.10474.41124-.41147.91968-.58354 1.316-.65835 1.5403 2.0499 1.4281 1.3017-.0075-.11222-.22431-.26184-.36638-.3965-.6206-.1197-.21684-.20947-.4561-.32169-.68789z" fill="#68973b"/>
  <path d="m10.092 21.841c-.0075.01495-.02245.02243-.02993.04486l-.5985 1.2636c-.21696.60564.20947 1.0767.7556 1.0543.53117-.02243.8753-.50844.61346-1.0916-.12718-.27665-.35162-.47105-.54613-.9122-.02993-.0673-.02993-.0972-.07481-.17945z" fill="#68973b"/>
  <path d="m12.052 8.6068c.62094-.28413 1.4813-1.0244 2.1022-1.3833v-.93463l-1.3167.85986c-.81545.56078-.80049.24674-.78553 1.458z" fill="#69963b"/>
  <path d="m12.052 5.9823.0075.94211c.41147-.17945 1.5711-1.0916 2.0798-1.3758l.0075-.94211c-.3965.15702-1.586 1.1216-2.0947 1.3758z" fill="#68973b"/>
 </g>
</svg>
