<svg width="100" height="100" version="1.1" viewBox="0 0 26.458 26.458" xmlns="http://www.w3.org/2000/svg">
 <g fill-rule="evenodd">
  <path d="m5.7243 9.0718-1.1078.0075-.0075.56107h17.148v-.55359l-1.1303-.01496.83833-4.2118-3.78-.0075.80839 4.2043-2.1183.02244.83085-4.2192-3.7725-.01496.80839 4.2118-2.1407.01496.84582-4.2043-3.78-.01496.81588 4.2192-2.1108.0075c-.03743-.57603.76348-3.3889.79342-4.2267l-3.7426-.0075z" fill="#68973b"/>
  <path d="m5.7317 20.6-1.1003.0075-.01497.53863 17.111.02244.03742-.55359-1.1377-.0075.83833-4.2192-3.78-.0075.80839 4.2043-2.1183.02244.83085-4.2192-3.7725-.0075.80091 4.2043-2.1108.02244.82336-4.2118-3.765-.01496.80091 4.2192-2.1108.0075c-.02994-.6284.76348-3.3814.79342-4.2267h-3.7426z" fill="#6a973d"/>
  <path d="m5.7243 14.78-1.1078.02244v.52366l17.111.02244.02994-.55359-1.1377-.0075.84582-4.2192-3.7725-.0075.80091 4.2043-2.1258.02244.83833-4.2118-3.765-.01496.80091 4.2192-2.1333.0075.83833-4.2118-3.765-.01496.80091 4.2192-2.1258.0075.83085-4.2043-3.7575-.02244z" fill="#68973b"/>
  <path d="m.21521 13.912c-.41917-7.3912 5.3968-13.353 12.35-13.698 7.4028-.36657 13.338 5.3788 13.675 12.366.35928 7.3837-5.4117 13.331-12.358 13.653-7.4178.33664-13.271-5.3414-13.668-12.321zm12.306-13.892c-7.0959.37405-12.912 6.4037-12.5 13.959.38174 7.0545 6.4297 12.86 13.997 12.441 7.0136-.38901 12.852-6.4261 12.418-13.967-.39671-7.0171-6.3998-12.837-13.915-12.433z" fill="#68943d"/>
 </g>
</svg>
