<svg width="100" height="100" version="1.1" viewBox="0 0 26.458 26.458" xmlns="http://www.w3.org/2000/svg">
 <g fill-rule="evenodd">
  <path d="m3.871 7.0726 18.707-.0075c-.187-.42611-1.2491-1.3082-1.6979-1.6596-.59091-.46349-1.3015-.93446-2.0944-1.3307-4.3832-2.168-9.3124-1.5923-13.18 1.3157-.36651.2766-1.6007 1.3606-1.7353 1.682z" fill="#69963c"/>
  <path d="m12.136 18.66c-2.6329.54573-.94246 3.8276.05236 4.1042.39643.10466.62831-.11961.99482-.12709.41139-.0075.60587.2467 1.0098.07476 1.3913-.5831 2.3113-3.7902-.08976-4.0743-.47123-.05233-.63579.12709-.94994.0598-.38147-.07475-.56847-.13456-1.0173-.03738z" fill="#69973b"/>
  <path d="m6.8181 18.66c-2.6254.56815-.88262 3.8874.1122 4.1042.38147.08223.62083-.14204.99482-.12709.41139.0075.59839.2467 1.0023.0598 1.3987-.62796 2.244-3.8051-.12716-4.0668-.47871-.04485-.62831.13456-.95742.0598-.37399-.08971-.62083-.11961-1.0247-.02991z" fill="#69973b"/>
  <path d="m17.514 18.653c-2.6479.48592-1.0023 3.7827.0075 4.1042.41139.12709.60587-.11213.97986-.11961.41887-.0075.59839.23922 1.0247.08223 1.3389-.4934 2.3636-3.7528-.04487-4.0743-.44879-.06729-.67319.10466-.94994.0598-.41887-.0598-.53107-.14204-1.0173-.05234z" fill="#69973b"/>
  <path d="m26.191 14.421c-.59839 6.7879-6.5972 12.425-14.144 11.789-6.7693-.57563-12.446-6.601-11.803-14.129.59091-6.7954 6.6047-12.499 14.204-11.812 6.7543.62048 12.402 6.6235 11.743 14.152zm-13.92-14.368c-2.9471.29903-4.9741 1.084-7.1657 2.7511-3.4033 2.5791-5.393 6.915-5.0714 11.415.49367 6.9823 6.5823 12.768 14.219 12.2 6.9264-.50835 12.701-6.5861 12.147-14.196-.2244-3.0949-1.3613-5.3451-3.1191-7.5729-1.2491-1.5774-3.4632-3.0426-5.3481-3.7678-1.653-.63543-3.71-1.0316-5.6623-.8298z" fill="#68943d"/>
  <path d="m12.727 12.373h.60587l-.0075-2.153-.59839-.0075z" fill="#69963c"/>
  <path d="m11.156 12.365.60587.01495-.0075-2.168-.59839.0075z" fill="#69963c"/>
  <path d="m14.298 12.373.60587-.0075-.0075-2.138-.59839-.01495z" fill="#69963c"/>
  <path d="m11.156 14.885.59839.0075v-2.1605l-.59839.0075z" fill="#69963c"/>
  <path d="m6.4441 12.38.59839-.01495-.0075-2.138-.59839-.01495z" fill="#69953a"/>
  <path d="m14.298 14.892.59839-.0075v-2.1381l-.59839-.01495z" fill="#69973b"/>
  <path d="m12.727 17.404h.59091l.0075-2.153h-.59091z" fill="#69963c"/>
  <path d="m11.156 17.397.59091.0075.0075-2.1605-.59091.0075z" fill="#69963c"/>
  <path d="m19.018 17.397h.59839v-2.1231l-.59091-.02991z" fill="#6a963c"/>
  <path d="m14.298 17.404h.59091l.0075-2.153-.58343-.0075z" fill="#69963c"/>
  <path d="m8.0074 17.382.59839.02242v-2.1455l-.59091-.0075z" fill="#69973b"/>
  <path d="m15.869 17.374.59839.02991v-2.1455h-.59091z" fill="#69973b"/>
  <path d="m12.727 14.885.59839.0075v-2.1605h-.57595z" fill="#69963c"/>
  <path d="m6.4366 17.367.59839.03738v-2.1455h-.59091z" fill="#69973b"/>
  <path d="m9.5857 17.389.59091.0075.0075-2.1231-.59091-.02243z" fill="#69973b"/>
  <path d="m17.447 17.382.59091.01495v-2.1306l-.58343-.01495z" fill="#69973b"/>
  <path d="m6.4366 14.892.59839-.0075v-2.1455l-.56847-.0075z" fill="#69973b"/>
  <path d="m19.018 14.885.57595.0075.02244-2.1381-.58343-.02242z" fill="#6b983e"/>
  <path d="m19.018 12.365h.58343l.01497-2.138-.56847-.01495z" fill="#69973b"/>
  <path d="m15.876 14.885.56099.0075.02992-2.153h-.58343z" fill="#69973b"/>
  <path d="m12.727 9.8536.58343.0075.01496-1.9661h-.59091z" fill="#69963c"/>
  <path d="m11.156 9.8536.58343.0075.01496-1.9661-.59091.0075z" fill="#69963c"/>
  <path d="m19.018 9.8461.59091.0075.0075-1.9287-.59091-.02991z" fill="#6a963c"/>
  <path d="m14.305 9.8611.58343-.0075.0075-1.9512-.59091-.0075z" fill="#69963c"/>
  <path d="m8.0149 9.8387.58343.01495.01496-1.9437-.59839-.0075z" fill="#69973b"/>
  <path d="m15.869 9.8312.59091.02991.0075-1.9512h-.59091z" fill="#69973b"/>
  <path d="m6.4441 9.8312.58343.02991.0075-1.9512h-.59091z" fill="#69973b"/>
  <path d="m9.5857 9.8461.59091.0075.0075-1.9287-.59091-.02242z" fill="#69973b"/>
  <path d="m17.447 9.8387.58343.01495.0075-1.9362-.59091-.01495z" fill="#69973b"/>
  <path d="m8.0373 12.336.54603-.0075.0075-2.0483-.53855-.01495z" fill="#69953a"/>
  <path d="m9.6006 12.343.53107-.0075.01496-2.0633-.53107-.0075z" fill="#69953a"/>
  <path d="m15.921 12.343.53107-.0075-.0075-2.0633h-.53107z" fill="#68973b"/>
  <path d="m8.0523 14.825.53107-.01495v-2.0409h-.53855z" fill="#69953a"/>
  <path d="m17.477 12.336h.52359l.0075-2.0633-.52359-.0075z" fill="#69953a"/>
  <path d="m9.6156 14.832.51611-.0075.0075-2.0558-.52359-.0075z" fill="#69953a"/>
  <path d="m17.492 13.345v.76252l-.0075.72514.51611-.0075v-2.0558h-.51611z" fill="#69953a"/>
  <path d="m17.484 12.769h.51611v2.0558l-.51611.0075.0075-.72514v-.76252zm-.02244 2.1231.56099.01495c.08227-.3065.06732-1.839.02244-2.1754l-.59839-.02242c-.05236.35883-.06732 1.8988.01496 2.1829z" fill="#9cb483"/>
  <path d="m8.0448 12.769h.53855v2.0409l-.53107.01495zm-.01496 2.1231.56099.01495c.09724-.32146.0748-1.8241.02244-2.1829l-.60587-.0075c-.04487.35883-.05984 1.8764.02244 2.1754z" fill="#9bb67c"/>
  <path d="m17.484 10.265.52359.0075-.0075 2.0633h-.52359zm-.0374 2.1081.59091.01495c.05984-.33641.06732-1.8764-.0075-2.1754l-.56847-.0075c-.08228.3065-.06732 1.8465-.01496 2.168z" fill="#9cb483"/>
  <path d="m8.0523 10.265.53855.01495-.0075 2.0483-.54603.0075zm-.0374 2.1081.59091.01495c.05984-.33641.06732-1.8839-.01496-2.1754l-.56847-.0075c-.0748.31398-.06732 1.839-.0075 2.168z" fill="#9aba78"/>
  <path d="m9.6156 12.762.52359.0075-.0075 2.0558-.51611.0075zm-.0075 2.1306.56099.0075.02992-2.1605-.61335-.02991c-.05236.36631-.0748 1.8988.02244 2.1829z" fill="#9cb483"/>
  <path d="m9.6156 10.265.53107.0075-.01496 2.0633-.53107.0075zm-.02992 2.1156.59091.0075.02244-2.168-.59839-.02242c-.08976.29903-.0748 1.8614-.01496 2.1829z" fill="#9cb483"/>
  <path d="m15.914 10.272h.53107l.0075 2.0633-.53107.0075zm-.05984 2.0932.61335.02991c.06732-.32893.0748-1.8988-.01496-2.1829l-.56847-.0075z" fill="#9bb67c"/>
 </g>
</svg>
