<svg width="100" height="100" version="1.1" viewBox="0 0 26.458 26.458" xmlns="http://www.w3.org/2000/svg">
 <g fill-rule="evenodd">
  <path d="m15.804 23.579 2.2376-11.04-9.3844.02244 2.1927 11.017z" fill="#69973b"/>
  <path d="m11.823.28105c2.0131-.23186 3.9888.037397 5.7324.65819 1.8036.64323 2.9186 1.3987 4.1384 2.3785 2.4546 1.982 4.1384 5.2805 4.4902 8.5041.8232 7.5991-4.8718 13.583-11.502 14.323-7.6483.85265-13.71-4.8616-14.406-11.541-.44153-4.196 1.0702-7.442 3.0309-9.8205 1.7137-2.0718 4.5875-4.0539 8.5163-4.5026zm.69598-.26178c-7.087.36649-12.917 6.4099-12.498 13.957.38915 7.0232 6.4434 12.88 13.994 12.423 7.0271-.41885 12.894-6.4473 12.415-14.016-.44153-6.9858-6.391-12.76-13.912-12.364z" fill="#6a953c"/>
  <path d="m11.673 9.1517c.22451.22438.53134 1.1444 1.7063 1.1818.86062.02991 1.594-.56096 1.7736-1.1818.26941.2543.30683.71803 1.0178 1.0247 1.0178.43381 2.2975-.09723 2.5594-1.2565.16464-.71803-.07484-1.0696-.3667-1.5707-.913-1.5707-1.8335-3.3508-2.7315-4.8691-.11225-.18699-.0898-.22438-.25444-.2543-.11225.15707.0898.39641.20954.61331.12722.22438.24696.42633.3667.64323.25444.44129.49392.86013.73339 1.2939.48644.89753.96538 1.7352 1.4593 2.5954.28438.5086.55379.81526.37418 1.5408-.39663 1.623-2.7764 1.6156-3.173 0-.0898-.36649-.02245-.3291-.18709-.41885-.05987.082274-.0075-.029921-.07484.16455-.12722.41137-.03742.52356-.47147.97233-.92048.96485-2.4621.47868-2.7689-.77038-.02245-.097232 0-.044878-.02994-.15707-.0075-.014957-.01496-.029921-.01496-.05236l-.06735-.15707c-.11225.05236-.097287-.014957-.17961.35901-.32928 1.6006-2.6567 1.7577-3.1656.11219-.22451-.71055.052382-1.0696.3218-1.5707.87558-1.653 1.8485-3.261 2.7166-4.8915.11225-.20194.11974-.17203 0-.26926-.14219.014959-.26193.32909-.35173.50112-.12722.23186-.23948.42633-.3667.65071l-2.1702 3.9043c-.26193.48616-.53882.86013-.38166 1.5931.12722.5834.44902.93493.83816 1.1818 1.0776.68811 2.4172-.02244 2.6791-.91249z" fill="#6a953c"/>
 </g>
</svg>
