<svg width="100" height="100" version="1.1" viewBox="0 0 26.458 26.458" xmlns="http://www.w3.org/2000/svg">
 <g fill-rule="evenodd">
  <path d="m13.145 9.0705c-.50874-.14955-.95015-.1645-1.5337-.1645-2.3267 0-3.9128.70287-4.9303 2.0712-1.0624 1.4282-1.2344 3.7985-.56859 5.6828.606 1.6899 2.8504 5.6902 5.0575 5.451 1.1222-.11964 1.6609-.68791 2.9851-.44116 1.429.26918 2.1846 1.2786 4.7133-1.5478 2.3193-2.5946 3.4639-7.582.47133-10.035-1.0324-.85241-2.6709-1.2113-4.1148-1.1366-.65089.02991-.84541.26171-1.3916.3963.19452-.70287 1.414-1.989 2.02-2.5572.33667-.32152.74067-.59819.75563-.80007-.51622-.0673-.84541.1645-1.0998.38882-.25437.22432-.53867.55332-.7257.80007-.24689.31405-.41896.54584-.62096.89728-.17208.29909-.33667.75521-.50874 1.0094-.31422-2.5797-.68082-4.4565-2.7831-5.6603-.20948-.11964-1.7881-.91223-1.9452-.92719-.39652-.04487-.26185.67296-.20948 1.1066.05985.41873.12718.7926.20948 1.1814.35911 1.6301.65837 2.4825 2.2594 3.3947.27682.15702.61348.329.93519.44864.32918.12712.808.23928 1.025.44116z" fill="#68973b"/>
  <path d="m12.299.23975c7.4665-.56828 13.452 5.2266 13.923 12.016.51622 7.4848-5.1772 13.452-12.038 13.93-7.5039.52341-13.429-5.1444-13.946-12.016-.56111-7.5147 5.1772-13.399 12.06-13.93zm-.17956-.18693c-6.9279.61314-12.734 6.6249-12.068 14.304.59852 6.8717 6.6511 12.674 14.305 12.016 6.8979-.59819 12.696-6.6174 12.053-14.282-.57607-6.8567-6.6436-12.711-14.29-12.038z" fill="#6a953e"/>
 </g>
</svg>
